<?xml version="1.0" encoding="UTF-8" standalone="no"?>
<!-- Created with Inkscape (http://www.inkscape.org/) -->

<svg
   width="149.53162mm"
   height="47.120983mm"
   viewBox="0 0 149.53162 47.120983"
   version="1.1"
   id="svg1"
   inkscape:version="1.3 (0e150ed6c4, 2023-07-21)"
   sodipodi:docname="tonymenzo_logo.svg.2023_09_30_12_35_21.0.svg"
   xmlns:inkscape="http://www.inkscape.org/namespaces/inkscape"
   xmlns:sodipodi="http://sodipodi.sourceforge.net/DTD/sodipodi-0.dtd"
   xmlns="http://www.w3.org/2000/svg"
   xmlns:svg="http://www.w3.org/2000/svg">
  <sodipodi:namedview
     id="namedview1"
     pagecolor="#ffffff"
     bordercolor="#999999"
     borderopacity="1"
     inkscape:showpageshadow="0"
     inkscape:pageopacity="0"
     inkscape:pagecheckerboard="0"
     inkscape:deskcolor="#d1d1d1"
     inkscape:document-units="mm"
     inkscape:zoom="1.3650865"
     inkscape:cx="203.28383"
     inkscape:cy="66.296167"
     inkscape:window-width="1910"
     inkscape:window-height="1022"
     inkscape:window-x="5"
     inkscape:window-y="29"
     inkscape:window-maximized="1"
     inkscape:current-layer="layer1"
     showgrid="false" />
  <defs
     id="defs1">
    <inkscape:path-effect
       effect="envelope"
       id="path-effect19"
       is_visible="true"
       lpeversion="1"
       yy="true"
       xx="true"
       bendpath1="M 50.125294,70.286249 C 101.46818,46.089369 67.802878,44.654336 101.58958,50.538007"
       bendpath2="m 101.46818,46.089369 1.73697,41.182641"
       bendpath3="m 51.493295,97.773166 c 32.251367,-3.046545 35.086969,9.283404 45.857964,0.331917"
       bendpath4="M 51.542758,65.793532 47.540536,98.882991"
       bendpath1-nodetypes="cc"
       bendpath3-nodetypes="cc"
       bendpath4-nodetypes="cc"
       bendpath2-nodetypes="cc" />
    <inkscape:path-effect
       effect="envelope"
       id="path-effect18"
       is_visible="true"
       lpeversion="1"
       yy="true"
       xx="true"
       bendpath1="M 49.013961,67.299375 C 93.536231,58.058077 71.600265,25.669057 109.62071,35.777985"
       bendpath2="m 97.026567,82.010439 -3.84759,14.150562"
       bendpath3="m 46.516231,97.875503 c 24.184207,0.03903 34.848284,-4.788231 44.598347,4.762517"
       bendpath4="M 48.763287,76.539414 46.116939,90.40849"
       bendpath1-nodetypes="cc"
       bendpath3-nodetypes="cc"
       bendpath4-nodetypes="cc"
       bendpath2-nodetypes="cc" />
    <inkscape:path-effect
       effect="envelope"
       id="path-effect17"
       is_visible="true"
       lpeversion="1"
       yy="true"
       xx="true"
       bendpath1="M 9.6773044,78.038848 C 45.939436,79.932266 41.416914,57.173915 51.48975,58.776229"
       bendpath2="m 46.671972,75.081391 c 0,0 0.577372,1.074511 2.298227,10.141208"
       bendpath3="M 11.660386,88.998935 43.76867,97.383866"
       bendpath4="M 10.137854,79.232806 V 89.715481"
       bendpath1-nodetypes="cc"
       bendpath3-nodetypes="cc"
       bendpath2-nodetypes="cc" />
    <inkscape:path-effect
       effect="envelope"
       id="path-effect16"
       is_visible="true"
       lpeversion="1"
       yy="true"
       xx="true"
       bendpath1="m 7.3338785,74.606519 c 38.6934445,-7.613431 53.4471425,-17.108919 115.9620615,0"
       bendpath2="M 123.29594,74.606519 V 92.329465"
       bendpath3="M 7.3338785,92.329465 C 83.447253,85.303739 111.52509,160.59015 135.55543,104.4233"
       bendpath4="M 7.3338785,74.606519 V 92.329465"
       bendpath1-nodetypes="cc"
       bendpath3-nodetypes="cc" />
    <inkscape:path-effect
       effect="lattice2"
       gridpoint0="7.3338785,79.202422"
       gridpoint1="123.29594,71.768811"
       gridpoint2="7.5442643,89.974502"
       gridpoint3="123.29594,90.255014"
       gridpoint4="38.942579,71.196979"
       gridpoint5="94.270361,71.768811"
       gridpoint6="33.486927,94.074041"
       gridpoint7="94.270361,90.255014"
       gridpoint8x9="65.244781,71.768811"
       gridpoint10x11="65.244781,90.255014"
       gridpoint12="7.4040066,79.826653"
       gridpoint13="123.29594,76.390362"
       gridpoint14="7.1936223,85.633463"
       gridpoint15="123.29594,85.633463"
       gridpoint16="36.742753,72.212409"
       gridpoint17="94.270361,76.390362"
       gridpoint18="35.167276,83.529611"
       gridpoint19="94.270361,85.633463"
       gridpoint20x21="65.244781,76.390362"
       gridpoint22x23="65.244781,85.633463"
       gridpoint24x26="7.1234942,80.871654"
       gridpoint25x27="123.29594,81.011912"
       gridpoint28x30="36.219202,81.011912"
       gridpoint29x31="94.270361,81.011912"
       gridpoint32x33x34x35="65.244781,81.011912"
       id="path-effect3"
       is_visible="true"
       lpeversion="1"
       horizontal_mirror="false"
       vertical_mirror="false"
       perimetral="false"
       live_update="true" />
    <inkscape:path-effect
       effect="bend_path"
       id="path-effect2"
       is_visible="true"
       lpeversion="1"
       bendpath="M 7.1936223,81.011912 H 123.29594"
       prop_scale="1"
       scale_y_rel="false"
       vertical="false"
       hide_knot="false" />
    <inkscape:path-effect
       effect="envelope"
       id="path-effect1"
       is_visible="true"
       lpeversion="1"
       yy="true"
       xx="true"
       bendpath1="M 7.1936223,71.768811 H 123.29594"
       bendpath2="M 123.29594,71.768811 V 90.255014"
       bendpath3="M 7.1936223,90.255014 H 123.29594"
       bendpath4="M 7.1936223,71.768811 V 90.255014" />
    <inkscape:path-effect
       effect="bspline"
       id="path-effect15"
       is_visible="true"
       lpeversion="1.3"
       weight="33.333333"
       steps="2"
       helper_size="0"
       apply_no_weight="true"
       apply_with_weight="true"
       only_selected="false"
       uniform="false" />
    <inkscape:path-effect
       effect="bspline"
       id="path-effect14"
       is_visible="true"
       lpeversion="1.3"
       weight="33.333333"
       steps="2"
       helper_size="0"
       apply_no_weight="true"
       apply_with_weight="true"
       only_selected="false"
       uniform="false" />
    <inkscape:path-effect
       effect="bspline"
       id="path-effect13"
       is_visible="true"
       lpeversion="1.3"
       weight="33.333333"
       steps="2"
       helper_size="0"
       apply_no_weight="true"
       apply_with_weight="true"
       only_selected="false"
       uniform="false" />
    <inkscape:path-effect
       effect="bspline"
       id="path-effect12"
       is_visible="true"
       lpeversion="1.3"
       weight="33.333333"
       steps="2"
       helper_size="0"
       apply_no_weight="true"
       apply_with_weight="true"
       only_selected="false"
       uniform="false" />
    <inkscape:path-effect
       effect="bspline"
       id="path-effect11"
       is_visible="true"
       lpeversion="1.3"
       weight="33.333333"
       steps="2"
       helper_size="0"
       apply_no_weight="true"
       apply_with_weight="true"
       only_selected="false"
       uniform="false" />
    <inkscape:path-effect
       effect="bspline"
       id="path-effect10"
       is_visible="true"
       lpeversion="1.3"
       weight="33.333333"
       steps="2"
       helper_size="0"
       apply_no_weight="true"
       apply_with_weight="true"
       only_selected="false"
       uniform="false" />
    <inkscape:path-effect
       effect="bspline"
       id="path-effect9"
       is_visible="true"
       lpeversion="1.3"
       weight="33.333333"
       steps="2"
       helper_size="0"
       apply_no_weight="true"
       apply_with_weight="true"
       only_selected="false"
       uniform="false" />
    <inkscape:path-effect
       effect="bspline"
       id="path-effect8"
       is_visible="true"
       lpeversion="1.3"
       weight="33.333333"
       steps="2"
       helper_size="0"
       apply_no_weight="true"
       apply_with_weight="true"
       only_selected="false"
       uniform="false" />
    <inkscape:path-effect
       effect="bspline"
       id="path-effect7"
       is_visible="true"
       lpeversion="1.3"
       weight="33.333333"
       steps="2"
       helper_size="0"
       apply_no_weight="true"
       apply_with_weight="true"
       only_selected="false"
       uniform="false" />
    <inkscape:path-effect
       effect="bspline"
       id="path-effect6"
       is_visible="true"
       lpeversion="1.3"
       weight="33.333333"
       steps="2"
       helper_size="0"
       apply_no_weight="true"
       apply_with_weight="true"
       only_selected="false"
       uniform="false" />
    <inkscape:path-effect
       effect="bspline"
       id="path-effect5"
       is_visible="true"
       lpeversion="1.3"
       weight="33.333333"
       steps="2"
       helper_size="0"
       apply_no_weight="true"
       apply_with_weight="true"
       only_selected="false"
       uniform="false" />
    <inkscape:path-effect
       effect="bspline"
       id="path-effect4"
       is_visible="true"
       lpeversion="1.3"
       weight="33.333333"
       steps="2"
       helper_size="0"
       apply_no_weight="true"
       apply_with_weight="true"
       only_selected="false"
       uniform="false" />
    <rect
       x="85.381363"
       y="61.531799"
       width="398.44623"
       height="54.535946"
       id="rect1" />
    <rect
       x="85.381363"
       y="61.531799"
       width="398.44623"
       height="54.535946"
       id="rect1-3" />
  </defs>
  <g
     inkscape:label="Layer 1"
     inkscape:groupmode="layer"
     id="layer1"
     transform="translate(18.22392,-54.473833)">
    <path
       style="fill:none;stroke:#000000;stroke-width:0.56444444;stroke-linecap:round;stroke-linejoin:miter;stroke-dasharray:none;stroke-opacity:1"
       d="m 136.16048,27.521987 c 1.39342,0.804491 2.78685,1.608987 4.18479,1.583018 1.39795,-0.02597 2.80206,-0.8834 4.20536,-1.740334"
       id="path5"
       inkscape:path-effect="#path-effect5"
       inkscape:original-d="m 136.16048,27.521987 c 1.39342,0.804492 2.78685,1.608985 4.18027,2.413478 1.42356,-0.821893 2.80658,-1.713863 4.20988,-2.570794"
       transform="translate(-40.411803,39.153337)" />
    <path
       style="fill:none;stroke:#000000;stroke-width:0.56444444;stroke-linecap:butt;stroke-linejoin:miter;stroke-dasharray:none;stroke-opacity:1"
       d="m 136.91236,27.951238 c 1.02996,-1.029958 2.05991,-2.05991 3.19021,-2.07165 1.1303,-0.01174 2.3609,0.994702 3.59152,2.001162"
       id="path6"
       inkscape:path-effect="#path-effect6"
       inkscape:original-d="m 136.91236,27.951238 c 1.02996,-1.029956 2.05991,-2.059912 3.08987,-3.089868 1.23064,1.006481 2.46124,2.01292 3.69186,3.01938"
       transform="translate(-40.350787,39.321574)" />
    <path
       style="fill:none;stroke:#000000;stroke-width:0.56444444;stroke-linecap:round;stroke-linejoin:miter;stroke-dasharray:none;stroke-opacity:1"
       d="m 156.14524,32.210128 c 1.32969,0.767699 2.65939,1.535403 4.01716,1.519189 1.35778,-0.01621 2.74359,-0.81631 4.12942,-1.616419"
       id="path10"
       inkscape:path-effect="#path-effect11"
       inkscape:original-d="m 156.14524,32.210128 c 1.32969,0.767701 2.65939,1.535401 3.98908,2.303102 1.38586,-0.800127 2.77167,-1.600221 4.1575,-2.400332"
       transform="translate(-40.832733,44.02166)" />
    <path
       style="fill:none;stroke:#000000;stroke-width:0.56444444;stroke-linecap:butt;stroke-linejoin:miter;stroke-dasharray:none;stroke-opacity:1"
       d="m 157.21964,32.930097 c 1.09367,-1.093671 2.18734,-2.187343 3.22512,-2.243245 1.03777,-0.0559 2.0196,0.925931 3.00146,1.907788"
       id="path11"
       inkscape:path-effect="#path-effect12"
       inkscape:original-d="m 157.21964,32.930097 c 1.09367,-1.093673 2.18734,-2.187346 3.28102,-3.28102 0.98187,0.981874 1.9637,1.963709 2.94556,2.945563"
       transform="translate(-40.947133,43.928116)" />
    <path
       style="fill:none;stroke:#000000;stroke-width:0.56444444;stroke-linecap:butt;stroke-linejoin:miter;stroke-dasharray:none;stroke-opacity:1"
       d="m 73.627264,58.335132 c 4.103052,-1.952188 8.861533,-2.120642 13.659284,-2.566807 4.797752,-0.446164 9.634298,-1.169989 15.185322,-0.46996 5.55103,0.700029 11.81588,2.823828 16.37472,5.222337 4.55885,2.398509 7.41116,5.071447 9.23315,8.037084 1.82199,2.965637 2.61344,6.223624 2.68955,9.898453 0.0761,3.674829 -0.56313,7.766142 -3.13868,11.11429 -2.57554,3.348148 -7.08719,5.95295 -12.03543,7.692152 -4.94824,1.739202 -10.33265,2.612699 -15.90484,3.220859 -5.572191,0.60816 -11.33148,0.95091 -15.833884,-0.0978 C 79.354052,99.337026 76.109077,96.89698 70.588233,95.879507 65.067388,94.862034 57.271192,95.267268 51.12141,95.469889 44.971627,95.67251 40.468597,95.67251 37.373622,95.185564 34.278648,94.698618 32.591884,93.724764 31.534494,92.867185 30.477105,92.009605 30.04914,91.268349 28.935133,90.656554 27.821125,90.044759 26.021154,89.562458 21.649812,89.321302 17.27847,89.080147 10.336071,89.080147 6.2213438,88.708646 2.1066165,88.337145 0.81975015,87.594173 -0.88608859,86.938012 -2.5919273,86.281851 -4.7166266,85.71254 -6.587032,85.391427 c -1.8704055,-0.321113 -3.48638,-0.394012 -4.707072,-0.499018 -1.220691,-0.105007 -2.045967,-0.24211 -2.751578,-0.374971 -0.70561,-0.132861 -1.291486,-0.261466 -2.061112,-0.531484 -0.769626,-0.270018 -1.722912,-0.681416 -1.574565,-1.086564 0.148348,-0.405147 1.398312,-0.803997 2.549942,-1.040586 1.151631,-0.236589 2.20479,-0.310889 3.705133,-0.393749 1.5003428,-0.08286 3.447685,-0.174266 6.1029258,-0.78974 2.6552408,-0.615473 6.01812746,-1.754961 11.2080813,-2.324717 5.1899539,-0.569755 12.2066269,-0.569755 16.8793769,-0.88174 4.672751,-0.311985 7.001344,-0.935929 8.894479,-1.976723 1.893136,-1.040795 3.350708,-2.498367 8.439974,-3.856683 5.089266,-1.358316 13.809672,-2.61727 19.893936,-5.114781 6.084263,-2.49751 9.531724,-6.233352 13.634775,-8.185539 z"
       id="path12"
       inkscape:path-effect="#path-effect13"
       inkscape:original-d="m 72.971743,56.551402 c 4.758573,-0.168457 9.517054,-0.336912 14.275722,-0.505373 4.836835,-0.723868 9.673381,-1.447693 14.510215,-2.171561 6.26522,2.123925 12.53007,4.247723 18.79528,6.371648 2.85248,2.673095 5.70479,5.346034 8.55727,8.019128 0.7915,3.258179 1.58295,6.516166 2.37445,9.774348 -0.63927,4.091476 -1.27852,8.182789 -1.91778,12.27418 -4.51183,2.604905 -9.02348,5.209706 -13.53522,7.814561 -5.38474,0.873548 -10.76915,1.747044 -16.153892,2.620597 -5.759639,0.34277 -11.518928,0.68552 -17.278566,1.02829 -3.245171,-2.440193 -6.490145,-4.88024 -9.735318,-7.320436 -7.796516,0.40525 -15.592712,0.810484 -23.389065,1.215726 -4.503212,0 -9.006242,0 -13.509362,0 -1.68683,-0.973891 -3.373593,-1.947746 -5.06039,-2.921619 -0.427982,-0.741286 -0.855946,-1.482542 -1.28392,-2.223812 -1.800042,-0.48232 -3.600013,-0.964621 -5.40002,-1.446932 -6.942677,0 -13.885076,0 -20.8276136,0 C 2.1066162,88.337146 0.81975013,87.594173 -0.46714138,86.851186 -2.591927,86.28185 -4.7166269,85.712541 -6.8413713,85.143216 c -1.6160663,-0.0729 -3.2320407,-0.145801 -4.8481047,-0.218703 -0.825319,-0.137111 -1.650595,-0.274214 -2.475911,-0.411324 -0.585905,-0.128612 -1.171781,-0.257218 -1.75769,-0.38583 -0.953343,-0.411423 -1.906629,-0.822821 -2.859971,-1.234243 1.250037,-0.398873 2.500001,-0.797723 3.750039,-1.196597 1.053223,-0.0743 2.106382,-0.148604 3.159606,-0.222909 1.947462,-0.09141 3.894804,-0.182821 5.8422646,-0.274235 3.3630212,-1.139533 6.72590778,-2.279021 10.0888614,-3.418532 7.016954,0 14.033627,0 21.050441,0 2.328687,-0.623969 4.65728,-1.247915 6.985919,-1.871871 1.457631,-1.457632 2.915204,-2.915203 4.372806,-4.372806 8.72093,-1.25903 17.441336,-2.517984 26.162265,-3.777014 3.447598,-3.735991 6.895059,-7.471833 10.342589,-11.20775 z"
       sodipodi:nodetypes="cccccccccccccccccccccccccccccccc" />
    <path
       style="fill:none;stroke:#000000;stroke-width:0.56444444;stroke-linecap:round;stroke-linejoin:miter;stroke-dasharray:none;stroke-opacity:1"
       d="m 88.003603,83.750576 c 2.045857,1.181176 4.091713,2.362351 6.291677,2.273377 2.199964,-0.08897 4.553944,-1.448045 6.90797,-2.807142"
       id="path13"
       inkscape:path-effect="#path-effect14"
       inkscape:original-d="m 88.003603,83.750576 c 2.045857,1.181177 4.091713,2.362351 6.137569,3.543527 2.354072,-1.359124 4.708051,-2.718196 7.062078,-4.077292"
       transform="translate(8.4994624,2.9945968)" />
    <path
       style="fill:none;stroke:#000000;stroke-width:0.56444444;stroke-linecap:butt;stroke-linejoin:miter;stroke-dasharray:none;stroke-opacity:1"
       d="m 89.740699,84.631623 c 1.620909,-1.048944 3.241818,-2.097889 4.84935,-2.162168 1.607532,-0.06428 3.201626,0.856071 4.795752,1.776439"
       id="path14"
       inkscape:path-effect="#path-effect15"
       inkscape:original-d="m 89.740699,84.631623 c 1.620909,-1.048944 3.241818,-2.09789 4.862726,-3.146833 1.594157,0.920385 3.188251,1.840735 4.782376,2.761104"
       transform="translate(8.4994624,2.9945968)" />
    <path
       style="font-weight:900;font-size:11.2497px;line-height:1.25;font-family:Inter;-inkscape-font-specification:'Inter, Heavy';stroke-width:0.264583"
       d="m 10.157002,80.69991 c 1.198019,0.01986 2.46752,0.0315 3.75269,0.02225 -1.74e-4,0.0061 -0.0035,0.119307 -0.0036,0.125425 -0.07763,2.412082 -0.127454,4.365805 0.112247,6.461533 1.080422,0.04384 2.144621,0.100488 3.207567,0.162738 -0.05792,-2.295028 -0.1099,-4.190872 0.197292,-6.704289 0.0051,-0.04364 0.01036,-0.08726 0.01566,-0.130938 1.349731,-0.0588 2.718514,-0.151911 4.098284,-0.294163 0.13193,-0.593695 0.29032,-1.199285 0.440801,-1.892284 0,0 0,0 0,0 0.0306,-0.147046 0.06314,-0.289254 0.09592,-0.436775 0,0 0,0 0,0 0.0072,-0.03258 0.01445,-0.06522 0.02162,-0.09818 0.01245,-0.057 0.02375,-0.109078 0.03425,-0.169399 -4.254321,0.783533 -8.587361,0.964659 -12.2610422,0.788688 0.010349,0.04415 0.02037,0.08818 0.030054,0.132061 0.00577,0.02614 0.011419,0.05222 0.016954,0.07826 0,0 10e-8,0 10e-8,0 0.024971,0.117465 0.0476,0.233963 0.0681,0.349465 0,0 0,0 0,0 0.09831,0.553821 0.148856,1.090514 0.17322,1.60561 z m 14.750055,7.362437 c 0.836401,0.03516 1.594409,-0.113207 2.292171,-0.438295 1.713925,-0.803663 2.723489,-2.450812 3.0282,-4.218707 0.304125,-1.764496 -0.0719,-3.177762 -1.492849,-3.559093 -0.607704,-0.168653 -1.389028,-0.1514 -2.375192,0.03645 -3.401582,0.647963 -5.719187,2.445256 -5.83192,4.358413 -0.107615,1.82629 1.75757,3.711013 4.37959,3.821228 z m 0.343192,-2.206437 c -0.854656,0.02944 -1.366295,-0.691096 -1.244821,-1.77733 0.121837,-1.08949 0.84449,-1.875068 1.784937,-1.99441 0.894203,-0.113475 1.228622,0.570735 1.052568,1.76448 -0.175349,1.188964 -0.762695,1.97867 -1.592684,2.00726 z m 9.463114,-4.015928 c 0.175811,-0.92782 0.80348,-1.728549 1.505295,-1.970031 0.71091,-0.244611 0.973186,0.282334 0.806582,1.292865 -0.248046,1.549674 -0.444014,3.852993 -1.034632,6.036856 0.247145,-0.04569 0.493559,-0.09349 0.739446,-0.143438 0.710278,-0.149943 1.423266,-0.307991 2.114796,-0.46755 0.578542,-2.409173 0.710206,-5.29531 0.942125,-7.044012 0.276417,-2.056128 0.06033,-4.213737 -0.94772,-4.148023 0,0 0,0 0,0 -0.163467,0.0091 -0.347879,0.06846 -0.55744,0.179786 -1.027628,0.545938 -2.381096,2.267142 -3.070756,3.750555 1.56e-4,-5.7e-5 -0.08602,0.03087 -0.08587,0.03082 0.186847,-0.730968 0.389852,-1.465982 0.636765,-2.356266 -0.940622,0.435104 -1.923514,0.851562 -2.966768,1.238665 -1.230756,3.983672 -1.106459,5.861194 -2.148338,9.609096 1.01227,-0.06277 2.006797,-0.156018 2.992306,-0.282252 0.5651,-1.998892 0.810298,-4.293344 1.074207,-5.727068 z m 4.366976,11.785643 c 0.64536,-0.116842 1.329352,-0.562928 2.012099,-1.233748 1.671731,-1.637733 3.014033,-4.241725 3.706891,-6.196824 0.392871,-1.106116 0.680971,-2.030706 0.895947,-2.768713 0.959286,-3.37559 0.912552,-3.853025 2.099351,-8.609653 -0.666012,-0.315167 -1.318331,-0.6218 -1.926177,-0.850423 -0.166761,-0.06184 -0.331498,-0.115176 -0.496078,-0.160048 -0.785607,4.412326 -1.062074,5.964108 -1.468832,8.150716 1.71e-4,-3e-5 -0.07697,0.0132 -0.07679,0.01317 -0.120085,-0.635593 -0.234147,-1.152086 -0.341798,-1.815429 -0.264962,-1.625016 -0.328092,-3.247389 -0.188362,-6.47043 -0.774354,0.105309 -1.51619,0.345544 -2.304843,0.692826 -0.289478,5.82499 1.20939,6.911545 0.933523,12.079931 -0.04197,0.100159 -0.08495,0.201902 -0.12897,0.305231 -0.425756,0.992885 -0.98949,1.081163 -1.546335,0.729746 -0.586561,1.452834 -1.404351,3.255194 -2.581802,5.453423 0.211911,0.515902 0.692017,0.810606 1.412176,0.680222 0,0 4e-6,-10e-7 4e-6,-10e-7 z"
       id="text2"
       aria-label="Tony"
       inkscape:path-effect="#path-effect17"
       inkscape:original-d="m 10.137854,81.022531 h 2.460872 v 6.391875 h 2.189217 v -6.391875 h 2.460872 v -1.789725 h -7.110961 z m 10.035232,6.503733 c 1.997461,0 3.179957,-1.278375 3.179957,-3.163978 0,-1.885603 -1.182496,-3.163978 -3.179957,-3.163978 -1.997461,0 -3.179958,1.278375 -3.179958,3.163978 0,1.885603 1.182497,3.163978 3.179958,3.163978 z m 0.01598,-1.629928 c -0.591248,0 -0.942801,-0.587254 -0.942801,-1.55003 0,-0.962776 0.351553,-1.55003 0.942801,-1.55003 0.559289,0 0.910843,0.587254 0.910843,1.55003 0,0.962776 -0.351554,1.55003 -0.910843,1.55003 z m 6.264038,-1.933543 c 0.004,-0.607228 0.347558,-0.97476 0.894862,-0.97476 0.555294,0 0.882878,0.367532 0.878883,0.97476 v 3.451613 h 2.205197 v -3.915023 c 0.004,-1.334304 -0.838934,-2.301075 -2.141278,-2.301075 -0.902853,0 -1.617944,0.4714 -1.885603,1.246415 h -0.06392 v -1.166517 h -2.093339 v 6.1362 h 2.205197 z m 6.184144,5.752688 c 1.54204,0 2.265121,-0.775015 2.604689,-1.789725 l 2.237156,-6.64755 h -2.317054 l -1.006721,4.250597 h -0.06392 l -0.990741,-4.250597 h -2.301075 l 2.157258,6.407855 -0.04794,0.111857 c -0.147812,0.339569 -0.575269,0.327584 -1.118578,0.135828 l -0.479391,1.566009 c 0.343563,0.135827 0.818959,0.215726 1.326314,0.215726 z"
       transform="translate(-2.6458334,0.52916667)" />
    <path
       style="font-weight:900;font-size:11.218px;line-height:1.25;font-family:Inter;-inkscape-font-specification:'Inter, Heavy';stroke-width:0.362176"
       d="m 50.739477,67.861456 c 1.072962,6.733936 -2.959363,20.302469 -1.41594,29.822421 1.162179,-0.144525 2.279553,-0.280533 3.391758,-0.406521 -0.800739,-6.097768 -0.376073,-11.899397 0.355904,-18.544825 5e-5,-8e-6 0.09348,-0.01509 0.09353,-0.0151 0.252534,6.765306 0.724585,11.600137 2.356292,18.028566 0.646091,-0.06298 1.28311,-0.120295 1.914926,-0.171556 0.514653,-6.652207 1.507067,-12.062241 2.917964,-19.177452 3.6e-5,-9e-6 0.09215,-0.02166 0.09218,-0.02166 -0.497417,7.735493 -0.579783,11.632667 -0.31675,19.272669 1.014765,-0.04844 2.00778,-0.07714 2.992163,-0.08589 0.09856,-11.649923 1.983162,-23.691018 0.298397,-33.415894 -1.251184,0.638885 -2.507983,1.231054 -3.761499,1.771775 0.0062,4.750951 -1.948056,12.068425 -3.177582,17.974738 1.56e-4,-2.8e-5 -0.143013,0.0258 -0.142856,0.02578 -0.507473,-5.559676 -0.534961,-12.523364 -1.948051,-16.031424 -1.230335,0.385844 -2.452007,0.714151 -3.650441,0.974379 z M 68.414029,97.27034 c 2.17159,0.179623 4.083014,-4.031523 4.636112,-10.609469 -0.354887,0.05264 -2.42729,0.356746 -2.782177,0.409386 -0.231093,1.669648 -0.767284,2.647356 -1.390982,2.712558 -0.89733,0.09381 -1.39736,-1.839309 -1.331962,-4.447373 -1.19e-4,0.0048 0.01092,-0.430961 0.0108,-0.426207 1.849753,-0.338457 3.79171,-0.699119 5.593414,-1.046877 0.02612,-0.80956 0.05121,-1.640261 0.07459,-2.43598 0.134945,-4.591429 -0.184841,-8.092751 -0.868879,-10.289331 -0.686225,-2.203603 -1.736371,-3.085419 -3.010745,-2.578351 -1.296849,0.516011 -2.397707,2.271836 -3.23928,4.796604 -0.840527,2.521631 -1.476792,5.976117 -1.600446,10.001997 -0.129771,4.225037 0.308994,7.574643 1.006585,9.951865 0.690485,2.353007 1.661825,3.858508 2.902963,3.961168 0,0 -10e-7,1e-5 -10e-7,1e-5 z M 67.718366,79.569617 c 0.09847,-2.303429 0.787648,-4.062183 1.537493,-4.284477 0.765958,-0.227071 1.292539,1.214673 1.234396,3.591375 -0.91726,0.235171 -1.843573,0.466777 -2.771889,0.693102 z m 9.82526,-1.071646 c 0.08056,-3.005772 0.572882,-4.939244 1.3127,-5.204146 0.750618,-0.268768 1.178845,1.392418 1.105214,4.493566 -0.117597,5.343681 -0.334778,12.578485 -1.478871,20.001219 0.448153,0.05295 0.897911,0.104317 1.347468,0.152706 0.483086,0.05061 0.967731,0.09926 1.451171,0.144261 1.467672,-9.051724 1.629315,-17.718683 1.680764,-23.705972 0.04611,-4.933971 -0.597525,-8.773686 -1.600303,-10.216107 -0.400327,-0.586925 -0.847003,-0.776338 -1.329481,-0.517459 -1.142299,0.612912 -2.029358,3.575599 -2.419557,7.445365 -3.2e-5,1.2e-5 -0.08631,0.0329 -0.08635,0.03291 0.01756,-1.872753 0.01799,-3.838456 -0.02783,-5.76857 -0.541167,0.261733 -1.084593,0.517765 -1.631334,0.769331 -0.384957,0.176831 -0.770917,0.351986 -1.15832,0.525536 0.07362,5.50923 -0.315681,22.95962 -1.255582,30.524126 0.366403,0.04237 0.731363,0.08591 1.096799,0.130402 0.567363,0.06883 1.125219,0.138361 1.691654,0.208964 0.975677,-6.826281 1.173248,-13.869042 1.30186,-19.01613 z m 5.204142,19.711781 c -2.3e-4,-1.9e-5 0.08968,0.0075 0.08945,0.0075 0.526492,0.04367 1.025979,0.08851 1.522231,0.131354 0,0 1e-6,0 1e-6,0 0.653237,0.03536 1.340193,0.04052 2.066313,-0.01025 0,0 0,0 0,0 1.112949,-0.07096 2.237237,-0.251679 3.407632,-0.596274 0.412985,-4.771801 0.727451,-8.807664 0.953718,-12.518177 -1.190583,0.386597 -2.330112,0.657412 -3.46874,0.860666 -0.02973,0.0061 -0.05926,0.01205 -0.08861,0.01791 3e-6,-5.6e-5 0.0114,-0.206287 0.0114,-0.206343 1.38e-4,-6.32e-4 0.116275,-0.52909 0.116413,-0.529721 1.486073,-6.848124 2.598785,-11.947795 3.674526,-17.702452 -0.048,-2.337409 -0.126705,-4.614469 -0.215298,-7.060848 -1.141095,0.181117 -2.245073,0.292842 -3.375752,0.395335 -0.769629,0.09147 -1.465473,0.123652 -1.943381,0.270049 0,0 0,0 0,0 -0.348167,0.0321 -0.729241,0.211496 -1.214645,0.449854 0.200278,3.133602 0.273827,6.306659 0.295444,9.195676 0.511276,-0.170719 0.903313,-0.286443 1.235448,-0.305587 0.393318,-0.115206 0.951067,-0.211499 1.57552,-0.342426 0,-4.9e-5 0.0018,0.170947 0.0018,0.170898 -0.616815,3.156119 -1.156879,6.111469 -1.653317,9.418063 -0.416895,2.823548 -0.949889,5.724339 -1.762856,9.019007 -0.04566,0.184778 -0.09206,0.370308 -0.139244,0.556807 -0.23361,2.654124 -0.572401,5.57892 -1.088027,8.778983 z M 95.50629,95.748621 c 1.41458,-0.983131 2.977554,-4.689666 4.307205,-9.191229 1.361215,-4.608418 2.433835,-9.943969 2.504565,-15.119281 0.0692,-5.061272 -0.83085,-8.441523 -1.85217,-10.422137 -1.030819,-1.999053 -2.340724,-2.891805 -3.780418,-2.355666 -2.4431,0.909804 -3.69973,5.529308 -4.145633,12.950068 -0.01917,0.317504 -0.03709,0.640676 -0.05385,0.969716 -0.06272,1.218328 -0.109242,2.515889 -0.144215,3.909042 -0.03491,1.390441 -0.05561,2.768528 -0.05954,4.110218 -0.0013,0.36348 -0.0013,0.725004 -1.21e-4,1.083986 0.0261,8.442036 0.745657,15.787853 3.22418,14.065283 z m 1.141466,-12.154407 c -0.932057,0.520439 -1.08475,-3.266527 -0.958068,-8.619207 0.124365,-5.254774 0.458565,-8.251541 1.388554,-8.697024 0.798274,-0.382388 1.623307,2.025422 1.514295,7.207201 -0.110878,5.270453 -1.079825,9.626059 -1.944781,10.10903 z"
       id="text17"
       aria-label="Menzo"
       transform="matrix(0.77782269,0,0,0.68612317,9.674865,26.319081)"
       inkscape:path-effect="#path-effect19"
       inkscape:original-d="m 50.417255,76.952515 v 8.158546 h 2.167113 v -4.748528 h 0.06374 l 1.816551,4.684789 H 55.7713 l 1.816551,-4.65292 h 0.06374 v 4.716659 h 2.167114 v -8.158546 h -2.756696 l -1.896225,4.621052 h -0.09561 L 53.17395,76.952515 Z m 13.416981,8.270089 c 1.697041,0 2.788565,-0.812668 2.995716,-2.087441 h -2.007767 c -0.127478,0.346579 -0.489991,0.541779 -0.940145,0.541779 -0.653321,0 -1.035753,-0.430236 -1.035753,-1.019818 v -0.09561 h 3.983665 v -0.50991 c 0,-1.948012 -1.1951,-3.139128 -3.04352,-3.139128 -1.896225,0 -3.107259,1.258839 -3.107259,3.155063 0,1.979882 1.1951,3.155063 3.155063,3.155063 z m -0.987949,-3.872123 c 0.01195,-0.529827 0.450154,-0.892341 0.987949,-0.892341 0.545762,0 0.960063,0.366498 0.972014,0.892341 z m 7.074983,0.318694 c 0.004,-0.605517 0.346579,-0.972015 0.892341,-0.972015 0.553729,0 0.88039,0.366498 0.876406,0.972015 v 3.441886 H 73.889 v -3.903992 c 0.004,-1.330544 -0.83657,-2.294591 -2.135244,-2.294591 -0.900309,0 -1.613385,0.470073 -1.88029,1.242904 h -0.06374 v -1.16323 h -2.08744 v 6.118909 h 2.198983 z m 5.115028,3.441886 h 5.36998 v -1.673139 h -2.53361 v -0.03187 l 2.438003,-3.07539 v -1.338511 h -5.178765 v 1.673139 h 2.581415 v 0.03187 l -2.677023,3.202867 z m 9.353639,0.111543 c 1.991832,0 3.170997,-1.274773 3.170997,-3.155063 0,-1.88029 -1.179165,-3.155063 -3.170997,-3.155063 -1.991833,0 -3.170997,1.274773 -3.170997,3.155063 0,1.88029 1.179164,3.155063 3.170997,3.155063 z m 0.01593,-1.625336 c -0.589582,0 -0.940144,-0.585598 -0.940144,-1.545662 0,-0.960063 0.350562,-1.545662 0.940144,-1.545662 0.557714,0 0.908276,0.585599 0.908276,1.545662 0,0.960064 -0.350562,1.545662 -0.908276,1.545662 z" />
  </g>
</svg>
