<?xml version="1.0" encoding="UTF-8" standalone="no"?>
<!-- Created with Inkscape (http://www.inkscape.org/) -->

<svg
   width="77.445145mm"
   height="32.925014mm"
   viewBox="0 0 77.445144 32.925015"
   version="1.1"
   id="svg1"
   inkscape:version="1.4.2 (1:1.4.2+202505120738+ebf0e940d0)"
   sodipodi:docname="mechanism.svg"
   inkscape:export-filename="mechanism.pdf"
   inkscape:export-xdpi="300"
   inkscape:export-ydpi="300"
   xmlns:inkscape="http://www.inkscape.org/namespaces/inkscape"
   xmlns:sodipodi="http://sodipodi.sourceforge.net/DTD/sodipodi-0.dtd"
   xmlns="http://www.w3.org/2000/svg"
   xmlns:svg="http://www.w3.org/2000/svg">
  <sodipodi:namedview
     id="namedview1"
     pagecolor="#ffffff"
     bordercolor="#666666"
     borderopacity="1.0"
     inkscape:showpageshadow="2"
     inkscape:pageopacity="0.0"
     inkscape:pagecheckerboard="0"
     inkscape:deskcolor="#d1d1d1"
     inkscape:document-units="mm"
     inkscape:zoom="2.0151094"
     inkscape:cx="156.31905"
     inkscape:cy="-53.595104"
     inkscape:window-width="1155"
     inkscape:window-height="1347"
     inkscape:window-x="869"
     inkscape:window-y="44"
     inkscape:window-maximized="0"
     inkscape:current-layer="layer1"
     showguides="true" />
  <defs
     id="defs1">
    <marker
       style="overflow:visible"
       id="marker14"
       refX="0"
       refY="0"
       orient="auto-start-reverse"
       inkscape:stockid="Concave triangle arrow"
       markerWidth="0.69999999"
       markerHeight="0.69999999"
       viewBox="0 0 1 1"
       inkscape:isstock="true"
       inkscape:collect="always"
       preserveAspectRatio="xMidYMid">
      <path
         transform="scale(0.7)"
         d="M -2,-4 9,0 -2,4 c 2,-2.33 2,-5.66 0,-8 z"
         style="fill:context-stroke;fill-rule:evenodd;stroke:none"
         id="path14" />
    </marker>
    <inkscape:path-effect
       effect="bspline"
       id="path-effect5"
       is_visible="true"
       lpeversion="1.3"
       weight="33.333333"
       steps="2"
       helper_size="0"
       apply_no_weight="true"
       apply_with_weight="true"
       only_selected="false"
       uniform="false" />
    <inkscape:path-effect
       effect="bspline"
       id="path-effect4"
       is_visible="true"
       lpeversion="1.3"
       weight="33.333333"
       steps="2"
       helper_size="0"
       apply_no_weight="true"
       apply_with_weight="true"
       only_selected="false"
       uniform="false" />
    <inkscape:path-effect
       effect="bspline"
       id="path-effect3"
       is_visible="true"
       lpeversion="1.3"
       weight="33.333333"
       steps="2"
       helper_size="0"
       apply_no_weight="true"
       apply_with_weight="true"
       only_selected="false"
       uniform="false" />
    <inkscape:path-effect
       effect="bspline"
       id="path-effect2"
       is_visible="true"
       lpeversion="1.3"
       weight="33.333333"
       steps="2"
       helper_size="0"
       apply_no_weight="true"
       apply_with_weight="true"
       only_selected="false"
       uniform="false" />
    <inkscape:path-effect
       effect="bspline"
       id="path-effect1"
       is_visible="true"
       lpeversion="1.3"
       weight="33.333333"
       steps="2"
       helper_size="0"
       apply_no_weight="true"
       apply_with_weight="true"
       only_selected="false"
       uniform="false" />
    <inkscape:path-effect
       effect="bspline"
       id="path-effect3-7"
       is_visible="true"
       lpeversion="1.3"
       weight="33.333333"
       steps="2"
       helper_size="0"
       apply_no_weight="true"
       apply_with_weight="true"
       only_selected="false"
       uniform="false" />
    <inkscape:path-effect
       effect="bspline"
       id="path-effect5-2"
       is_visible="true"
       lpeversion="1.3"
       weight="33.333333"
       steps="2"
       helper_size="0"
       apply_no_weight="true"
       apply_with_weight="true"
       only_selected="false"
       uniform="false" />
  </defs>
  <g
     inkscape:label="Layer 1"
     inkscape:groupmode="layer"
     id="layer1"
     transform="translate(-62.243496,-18.121916)">
    <g
       id="path1"
       style="opacity:1"
       transform="matrix(1.466791,0,0,1.466791,-28.273805,-32.163271)">
      <path
         style="baseline-shift:baseline;display:inline;overflow:visible;vector-effect:none;enable-background:accumulate;stop-color:#000000;stop-opacity:1"
         d="m 65.445312,40.521484 v 0.197266 h 5.533204 4.845703 v -0.197266 h -4.845703 z"
         id="path4" />
      <g
         id="g2">
        <path
           d="m 70.770899,40.205707 1.137842,0.413761 -1.137842,0.413761 c 0.20688,-0.241016 0.20688,-0.585472 0,-0.827522 z"
           style="baseline-shift:baseline;display:inline;overflow:visible;vector-effect:none;fill-rule:evenodd;enable-background:accumulate;stop-color:#000000;stop-opacity:1"
           id="path2" />
      </g>
    </g>
    <path
       style="fill:none;stroke:#000000;stroke-width:0.288;stroke-linecap:butt;stroke-linejoin:miter;stroke-dasharray:0.863997, 0.863997;stroke-dashoffset:0;stroke-opacity:1"
       d="m 118.00948,31.431612 15.48617,4.149504"
       id="path8" />
    <path
       style="fill:none;stroke:#000000;stroke-width:0.388;stroke-linecap:round;stroke-linejoin:miter;stroke-dasharray:none;stroke-opacity:1;marker-mid:url(#marker14)"
       d="m 118.16621,31.298638 7.74308,-2.074753 7.74309,-2.074752"
       id="path8-6"
       sodipodi:nodetypes="ccc" />
    <path
       style="fill:none;stroke:#000000;stroke-width:0.288;stroke-linecap:butt;stroke-linejoin:miter;stroke-dasharray:1.728, 0.288;stroke-dashoffset:0;stroke-opacity:1"
       d="m 82.94485,27.417007 24.49292,-7.027866"
       id="path9"
       sodipodi:nodetypes="cc" />
    <g
       id="path75-6"
       style="opacity:1"
       transform="translate(0,0.52916667)">
      <path
         style="baseline-shift:baseline;display:inline;overflow:visible;vector-effect:none;enable-background:accumulate;stop-color:#000000;stop-opacity:1"
         d="m 90.615234,34.355469 -0.203125,0.203125 3.953125,3.955078 3.955078,3.953125 0.205079,-0.203125 -3.955079,-3.955078 z"
         id="path13" />
      <g
         id="g12">
        <path
           d="m 94.667555,37.812246 0.698508,1.496803 -1.496803,-0.698508 c 0.432077,-0.03293 0.764367,-0.36522 0.798295,-0.798295 z"
           style="baseline-shift:baseline;display:inline;overflow:visible;vector-effect:none;fill-rule:evenodd;enable-background:accumulate;stop-color:#000000;stop-opacity:1"
           id="path12" />
      </g>
    </g>
    <g
       id="path76"
       style="opacity:1"
       transform="translate(0,0.52916667)">
      <path
         style="baseline-shift:baseline;display:inline;overflow:visible;vector-effect:none;stroke-linecap:square;enable-background:accumulate;stop-color:#000000;stop-opacity:1"
         d="m 108.62305,35.970703 -0.16797,0.09766 -4.98633,2.878907 -4.986328,2.878906 -0.167969,0.0957 0.195313,0.335937 0.167968,-0.0957 4.986326,-2.878906 4.98438,-2.878906 0.16797,-0.09766 z"
         id="path20" />
      <g
         id="g19">
        <path
           d="m 102.85658,38.64636 2.19138,-0.387064 -1.4309,1.704254 c 0.10781,-0.573752 -0.20874,-1.122032 -0.76048,-1.31719 z"
           style="baseline-shift:baseline;display:inline;overflow:visible;vector-effect:none;fill-rule:evenodd;enable-background:accumulate;stop-color:#000000;stop-opacity:1"
           id="path19" />
      </g>
    </g>
    <g
       id="path130"
       style="opacity:1"
       transform="translate(0,0.52916667)">
      <path
         style="baseline-shift:baseline;display:inline;overflow:visible;vector-effect:none;enable-background:accumulate;stop-color:#000000;stop-opacity:1"
         d="m 98.242187,42.134766 -4.917968,2.839843 -4.919922,2.839844 0.142578,0.25 4.919922,-2.841797 4.919922,-2.839844 z"
         id="path16" />
      <g
         id="g14">
        <path
           d="m 92.868783,44.751144 1.626589,-0.287306 -1.062109,1.265014 c 0.08002,-0.425877 -0.154943,-0.832848 -0.56448,-0.977708 z"
           style="baseline-shift:baseline;display:inline;overflow:visible;vector-effect:none;fill-rule:evenodd;enable-background:accumulate;stop-color:#000000;stop-opacity:1"
           id="path15" />
      </g>
    </g>
    <g
       id="path130-4"
       style="opacity:1"
       transform="translate(0,0.52916667)">
      <path
         style="baseline-shift:baseline;display:inline;overflow:visible;vector-effect:none;enable-background:accumulate;stop-color:#000000;stop-opacity:1"
         d="m 98.494141,42.240234 -0.142579,0.25 4.917968,2.839844 4.91992,2.841797 0.14453,-0.25 -4.91992,-2.839844 z"
         id="path18" />
      <g
         id="g17">
        <path
           d="m 103.3801,44.575994 1.06211,1.265014 -1.62659,-0.287306 c 0.40883,-0.143637 0.6438,-0.550608 0.56448,-0.977708 z"
           style="baseline-shift:baseline;display:inline;overflow:visible;vector-effect:none;fill-rule:evenodd;enable-background:accumulate;stop-color:#000000;stop-opacity:1"
           id="path17" />
      </g>
    </g>
    <circle
       style="fill:#ff5959;fill-opacity:1;stroke:#c70000;stroke-width:0.3;stroke-dasharray:none;stroke-dashoffset:0;stroke-opacity:1"
       id="path10"
       cx="98.26638"
       cy="42.621468"
       r="1.9788193" />
    <g
       inkscape:label=""
       transform="translate(108.50364,19.213191)"
       id="g30">
      <g
         id="surface1"
         transform="matrix(0.352778,0,0,0.352778,-0.929084,-0.705732)">
        <g
           style="fill:#000000;fill-opacity:1"
           id="g3">
          <g
             id="use2"
             transform="translate(1.993,7.4380002)">
            <path
               style="stroke:none"
               d="m 4.5,-4.84375 c 0.0625,-0.265625 0.078125,-0.328125 0.5,-0.328125 0.109375,0 0.21875,0 0.21875,-0.15625 0,-0.015625 -0.015625,-0.109375 -0.125,-0.109375 -0.046875,0 -0.15625,0.015625 -0.921875,0.015625 -0.171875,0 -0.5,0 -0.546875,0 C 3.53125,-5.4375 3.140625,-5.4375 3.046875,-5.4375 c -0.046875,0 -0.15625,0 -0.15625,0.140625 0,0.125 0.078125,0.125 0.265625,0.125 0.015625,0 0.21875,0 0.421875,0.015625 0.21875,0.015625 0.265625,0.046875 0.265625,0.140625 0,0.03125 -0.015625,0.03125 -0.03125,0.140625 l -0.921875,3.703125 c -0.171875,0.65625 -0.6875,1.109375 -1.15625,1.109375 -0.171875,0 -0.625,-0.046875 -0.78125,-0.421875 0.546875,0 0.578125,-0.46875 0.578125,-0.5 0,-0.234375 -0.171875,-0.34375 -0.359375,-0.34375 -0.1875,0 -0.53125,0.15625 -0.53125,0.625 0,0.484375 0.4375,0.875 1.109375,0.875 0.765625,0 1.625,-0.515625 1.8125,-1.3125 z m 0,0"
               id="path29" />
          </g>
        </g>
      </g>
    </g>
    <g
       inkscape:label=""
       transform="translate(134.29137,26.428761)"
       id="g33">
      <g
         id="g32"
         transform="matrix(0.352778,0,0,0.352778,-0.63694,-0.673232)">
        <g
           style="fill:#000000;fill-opacity:1"
           id="g5">
          <g
             id="use4"
             transform="translate(1.993,5.4239998)">
            <path
               style="stroke:none"
               d="m 0.421875,0.96875 c -0.078125,0.25 -0.09375,0.3125 -0.40625,0.3125 -0.109375,0 -0.203125,0 -0.203125,0.15625 0,0.0625 0.0625,0.109375 0.109375,0.109375 0.078125,0 0.109375,-0.03125 0.703125,-0.03125 0.5625,0 0.734375,0.03125 0.796875,0.03125 0.03125,0 0.140625,0 0.140625,-0.15625 0,-0.109375 -0.109375,-0.109375 -0.203125,-0.109375 -0.375,0 -0.375,-0.046875 -0.375,-0.125 0,-0.046875 0.140625,-0.609375 0.375,-1.546875 0.109375,0.1875 0.359375,0.46875 0.78125,0.46875 0.984375,0 2,-1.125 2,-2.28125 0,-0.796875 -0.5,-1.3125 -1.140625,-1.3125 -0.484375,0 -0.859375,0.328125 -1.09375,0.5625 -0.171875,-0.5625 -0.703125,-0.5625 -0.78125,-0.5625 -0.28125,0 -0.484375,0.1875 -0.609375,0.4375 -0.1875,0.359375 -0.28125,0.765625 -0.28125,0.78125 0,0.078125 0.0625,0.109375 0.125,0.109375 0.109375,0 0.109375,-0.03125 0.171875,-0.25 0.09375,-0.40625 0.234375,-0.859375 0.5625,-0.859375 0.203125,0 0.265625,0.1875 0.265625,0.375 0,0.078125 -0.03125,0.28125 -0.046875,0.34375 z M 1.875,-2.453125 C 1.921875,-2.59375 1.921875,-2.609375 2.046875,-2.75 2.34375,-3.109375 2.6875,-3.296875 2.96875,-3.296875 c 0.40625,0 0.546875,0.390625 0.546875,0.75 0,0.296875 -0.171875,1.15625 -0.40625,1.625 -0.203125,0.421875 -0.59375,0.78125 -0.96875,0.78125 -0.53125,0 -0.671875,-0.625 -0.671875,-0.6875 0,-0.015625 0.015625,-0.09375 0.03125,-0.125 z m 0,0"
               id="path30" />
          </g>
          <g
             id="use5"
             transform="translate(6.2554088,5.4239998)">
            <path
               style="stroke:none"
               d="m 1.484375,-0.125 c 0,0.515625 -0.109375,0.984375 -0.59375,1.46875 C 0.859375,1.375 0.84375,1.390625 0.84375,1.421875 c 0,0.0625 0.0625,0.109375 0.109375,0.109375 0.09375,0 0.765625,-0.625 0.765625,-1.5625 0,-0.5 -0.203125,-0.859375 -0.546875,-0.859375 -0.28125,0 -0.4375,0.234375 -0.4375,0.4375 C 0.734375,-0.21875 0.890625,0 1.171875,0 1.375,0 1.484375,-0.109375 1.484375,-0.125 Z m 0,0"
               id="path31" />
          </g>
        </g>
        <g
           style="fill:#000000;fill-opacity:1"
           id="g6">
          <g
             id="use6"
             transform="translate(10.018094,5.4239998)">
            <path
               style="stroke:none"
               d="m 1.59375,-1.3125 c 0.03125,-0.109375 0.109375,-0.421875 0.125,-0.53125 0.109375,-0.4375 0.109375,-0.4375 0.296875,-0.703125 0.265625,-0.390625 0.640625,-0.75 1.171875,-0.75 0.28125,0 0.453125,0.171875 0.453125,0.546875 0,0.4375 -0.328125,1.34375 -0.484375,1.734375 -0.109375,0.265625 -0.109375,0.3125 -0.109375,0.421875 0,0.453125 0.375,0.671875 0.71875,0.671875 0.78125,0 1.109375,-1.109375 1.109375,-1.21875 C 4.875,-1.21875 4.8125,-1.25 4.75,-1.25 c -0.09375,0 -0.109375,0.0625 -0.125,0.140625 -0.1875,0.65625 -0.53125,0.96875 -0.828125,0.96875 -0.125,0 -0.1875,-0.078125 -0.1875,-0.265625 0,-0.1875 0.0625,-0.359375 0.140625,-0.5625 0.109375,-0.296875 0.46875,-1.21875 0.46875,-1.65625 0,-0.609375 -0.421875,-0.890625 -0.984375,-0.890625 -0.65625,0 -1.0625,0.390625 -1.296875,0.6875 -0.0625,-0.4375 -0.40625,-0.6875 -0.8125,-0.6875 -0.28125,0 -0.484375,0.1875 -0.609375,0.4375 -0.203125,0.375 -0.28125,0.765625 -0.28125,0.78125 0,0.078125 0.0625,0.109375 0.125,0.109375 0.109375,0 0.109375,-0.03125 0.171875,-0.25 0.09375,-0.390625 0.234375,-0.859375 0.5625,-0.859375 0.21875,0 0.265625,0.203125 0.265625,0.375 0,0.15625 -0.046875,0.296875 -0.109375,0.5625 -0.015625,0.0625 -0.140625,0.53125 -0.171875,0.640625 L 0.78125,-0.515625 c -0.03125,0.125 -0.078125,0.3125 -0.078125,0.34375 0,0.1875 0.15625,0.25 0.265625,0.25 0.140625,0 0.265625,-0.09375 0.3125,-0.1875 C 1.3125,-0.15625 1.375,-0.4375 1.40625,-0.59375 Z m 0,0"
               id="path32" />
          </g>
        </g>
      </g>
    </g>
    <g
       inkscape:label=""
       transform="translate(134.24727,35.097337)"
       id="g37">
      <g
         id="g36"
         transform="matrix(0.352778,0,0,0.352778,-0.785768,-0.700793)">
        <g
           style="fill:#000000;fill-opacity:1"
           id="g35">
          <g
             id="g34"
             transform="translate(1.993,5.4239998)">
            <path
               style="stroke:none"
               d="m 2.265625,-2.90625 h 0.90625 C 3.015625,-2.1875 2.875,-1.59375 2.875,-1 c 0,0.046875 0,0.390625 0.078125,0.6875 0.109375,0.328125 0.1875,0.390625 0.328125,0.390625 0.171875,0 0.359375,-0.15625 0.359375,-0.34375 0,-0.046875 0,-0.0625 -0.03125,-0.140625 C 3.4375,-0.765625 3.3125,-1.15625 3.3125,-1.8125 c 0,-0.171875 0,-0.515625 0.125,-1.09375 h 0.96875 c 0.125,0 0.203125,0 0.28125,-0.0625 0.109375,-0.09375 0.125,-0.1875 0.125,-0.25 0,-0.21875 -0.203125,-0.21875 -0.328125,-0.21875 h -2.875 c -0.171875,0 -0.484375,0 -0.875,0.390625 -0.28125,0.28125 -0.5,0.640625 -0.5,0.703125 0,0.078125 0.046875,0.09375 0.109375,0.09375 C 0.4375,-2.25 0.453125,-2.265625 0.5,-2.328125 0.890625,-2.90625 1.359375,-2.90625 1.53125,-2.90625 H 2 c -0.234375,0.84375 -0.65625,1.8125 -0.953125,2.390625 -0.046875,0.125 -0.125,0.28125 -0.125,0.34375 0,0.171875 0.125,0.25 0.25,0.25 0.3125,0 0.390625,-0.296875 0.5625,-0.953125 z m 0,0"
               id="path33" />
          </g>
        </g>
      </g>
    </g>
    <g
       inkscape:label=""
       transform="translate(99.979392,35.108078)"
       id="g49">
      <g
         id="g48"
         transform="matrix(0.352778,0,0,0.352778,-0.868451,-0.706085)">
        <g
           style="fill:#000000;fill-opacity:1"
           id="g45">
          <g
             id="g44"
             transform="translate(1.993,7.4390001)">
            <path
               style="stroke:none"
               d="m 3.609375,-4.796875 c 0,-0.265625 0,-0.375 0.734375,-0.375 H 4.609375 V -5.4375 C 4.25,-5.421875 3.65625,-5.421875 3.265625,-5.421875 c -0.375,0 -0.984375,0 -1.34375,-0.015625 v 0.265625 h 0.25 c 0.75,0 0.75,0.109375 0.75,0.375 V -1.34375 C 1.796875,-1.59375 1.75,-2.78125 1.75,-3.328125 1.75,-3.90625 1.53125,-4.421875 0.96875,-4.421875 H 0.703125 c -0.125,0 -0.234375,0 -0.234375,0.109375 0,0.09375 0.09375,0.109375 0.125,0.109375 0.46875,0.0625 0.484375,0.78125 0.484375,0.84375 0,0.46875 0.015625,2.046875 1.84375,2.265625 v 0.4375 c 0,0.28125 0,0.390625 -0.75,0.390625 h -0.25 V 0 C 2.28125,-0.03125 2.875,-0.03125 3.265625,-0.03125 c 0.375,0 0.984375,0 1.34375,0.03125 V -0.265625 H 4.34375 c -0.734375,0 -0.734375,-0.109375 -0.734375,-0.390625 v -0.4375 C 5.25,-1.265625 5.484375,-2.578125 5.5,-3.140625 c 0,-0.328125 0,-1 0.453125,-1.0625 0.078125,0 0.15625,-0.015625 0.15625,-0.109375 C 6.109375,-4.421875 6,-4.421875 5.875,-4.421875 H 5.609375 c -0.59375,0 -0.78125,0.484375 -0.78125,1.25 C 4.8125,-2.4375 4.5625,-1.53125 3.609375,-1.328125 Z m 0,0"
               id="path43" />
          </g>
        </g>
        <g
           style="fill:#000000;fill-opacity:1"
           id="g47">
          <g
             id="g46"
             transform="translate(8.5790005,8.7779999)">
            <path
               style="stroke:none"
               d="m 1.25,-0.5 c -0.046875,0.21875 -0.0625,0.265625 -0.515625,0.265625 -0.125,0 -0.140625,0 -0.15625,0.015625 -0.03125,0.015625 -0.0625,0.09375 -0.0625,0.140625 C 0.53125,0 0.59375,0 0.71875,0 H 3.140625 C 4.1875,0 5,-0.671875 5,-1.28125 5,-1.640625 4.671875,-2.046875 3.921875,-2.140625 c 0.6875,-0.109375 1.375,-0.546875 1.375,-1.09375 0,-0.421875 -0.46875,-0.859375 -1.3125,-0.859375 H 1.6875 c -0.109375,0 -0.203125,0 -0.203125,0.15625 0,0.09375 0.09375,0.09375 0.203125,0.09375 0.109375,0 0.25,0 0.375,0.03125 0,0.0625 0,0.109375 -0.015625,0.203125 z M 2.234375,-2.21875 2.59375,-3.640625 C 2.640625,-3.84375 2.640625,-3.84375 2.890625,-3.84375 h 1 c 0.609375,0 0.796875,0.375 0.796875,0.625 0,0.484375 -0.625,1 -1.359375,1 z m -0.28125,1.984375 c -0.109375,0 -0.125,0 -0.203125,-0.015625 l 0.4375,-1.78125 h 1.296875 c 0.765625,0 0.890625,0.484375 0.890625,0.734375 0,0.5625 -0.640625,1.0625 -1.390625,1.0625 z m 0,0"
               id="path45" />
          </g>
        </g>
      </g>
    </g>
    <g
       inkscape:label=""
       transform="translate(85.101116,48.592173)"
       id="g55">
      <g
         id="g54"
         transform="matrix(0.352778,0,0,0.352778,-0.796793,-0.673232)">
        <g
           style="fill:#000000;fill-opacity:1"
           id="g51">
          <g
             id="g50"
             transform="translate(1.993,5.4239998)">
            <path
               style="stroke:none"
               d="m 4.890625,-3.15625 c 0.046875,-0.0625 0.09375,-0.109375 0.09375,-0.15625 0,-0.078125 -0.0625,-0.125 -0.109375,-0.125 -0.0625,0 -0.078125,0.015625 -0.15625,0.09375 l -1.875,2 C 2.375,-2.59375 2.375,-2.609375 2.203125,-2.953125 c -0.078125,-0.15625 -0.28125,-0.5625 -1.03125,-0.5625 -0.53125,0 -0.734375,0.4375 -0.734375,0.546875 0,0.0625 0.046875,0.109375 0.109375,0.109375 0.09375,0 0.109375,-0.046875 0.125,-0.109375 0.09375,-0.234375 0.3125,-0.328125 0.4375,-0.328125 0.4375,0 1.078125,2.015625 1.21875,2.484375 L 0.359375,1.28125 C 0.28125,1.359375 0.265625,1.375 0.265625,1.421875 c 0,0.078125 0.0625,0.125 0.125,0.125 0.03125,0 0.0625,0 0.140625,-0.09375 l 1.890625,-2 C 3.046875,1.296875 3.203125,1.375 3.5,1.515625 3.640625,1.5625 3.84375,1.625 4.09375,1.625 c 0.484375,0 0.734375,-0.40625 0.734375,-0.546875 0,-0.078125 -0.0625,-0.109375 -0.125,-0.109375 -0.09375,0 -0.109375,0.046875 -0.125,0.109375 C 4.515625,1.25 4.3125,1.40625 4.140625,1.40625 3.90625,1.40625 3.625,0.78125 3.515625,0.546875 3.328125,0.140625 3.328125,0.125 2.921875,-1.0625 Z m 0,0"
               id="path49" />
          </g>
        </g>
        <g
           style="fill:#000000;fill-opacity:1"
           id="g53">
          <g
             id="g52"
             transform="translate(7.2509999,6.5310001)">
            <path
               style="stroke:none"
               d="m 2.140625,-3.796875 c 0,-0.1875 -0.015625,-0.1875 -0.203125,-0.1875 -0.390625,0.390625 -1,0.390625 -1.21875,0.390625 v 0.234375 c 0.15625,0 0.5625,0 0.921875,-0.171875 v 3.015625 c 0,0.203125 0,0.28125 -0.625,0.28125 h -0.25 V 0 c 0.328125,-0.03125 0.796875,-0.03125 1.125,-0.03125 0.328125,0 0.796875,0 1.125,0.03125 v -0.234375 h -0.25 c -0.625,0 -0.625,-0.078125 -0.625,-0.28125 z m 0,0"
               id="path51" />
          </g>
        </g>
      </g>
    </g>
    <g
       inkscape:label=""
       transform="translate(108.88266,48.592173)"
       id="g61">
      <g
         id="g60"
         transform="matrix(0.352778,0,0,0.352778,-0.796793,-0.673232)">
        <g
           style="fill:#000000;fill-opacity:1"
           id="g57">
          <g
             id="g56"
             transform="translate(1.993,5.4239998)">
            <path
               style="stroke:none"
               d="m 4.890625,-3.15625 c 0.046875,-0.0625 0.09375,-0.109375 0.09375,-0.15625 0,-0.078125 -0.0625,-0.125 -0.109375,-0.125 -0.0625,0 -0.078125,0.015625 -0.15625,0.09375 l -1.875,2 C 2.375,-2.59375 2.375,-2.609375 2.203125,-2.953125 c -0.078125,-0.15625 -0.28125,-0.5625 -1.03125,-0.5625 -0.53125,0 -0.734375,0.4375 -0.734375,0.546875 0,0.0625 0.046875,0.109375 0.109375,0.109375 0.09375,0 0.109375,-0.046875 0.125,-0.109375 0.09375,-0.234375 0.3125,-0.328125 0.4375,-0.328125 0.4375,0 1.078125,2.015625 1.21875,2.484375 L 0.359375,1.28125 C 0.28125,1.359375 0.265625,1.375 0.265625,1.421875 c 0,0.078125 0.0625,0.125 0.125,0.125 0.03125,0 0.0625,0 0.140625,-0.09375 l 1.890625,-2 C 3.046875,1.296875 3.203125,1.375 3.5,1.515625 3.640625,1.5625 3.84375,1.625 4.09375,1.625 c 0.484375,0 0.734375,-0.40625 0.734375,-0.546875 0,-0.078125 -0.0625,-0.109375 -0.125,-0.109375 -0.09375,0 -0.109375,0.046875 -0.125,0.109375 C 4.515625,1.25 4.3125,1.40625 4.140625,1.40625 3.90625,1.40625 3.625,0.78125 3.515625,0.546875 3.328125,0.140625 3.328125,0.125 2.921875,-1.0625 Z m 0,0"
               id="path55" />
          </g>
        </g>
        <g
           style="fill:#000000;fill-opacity:1"
           id="g59">
          <g
             id="g58"
             transform="translate(7.2509999,6.5310001)">
            <path
               style="stroke:none"
               d="M 3.21875,-1.125 H 3 C 2.984375,-1.03125 2.921875,-0.640625 2.84375,-0.578125 2.796875,-0.53125 2.3125,-0.53125 2.21875,-0.53125 H 1.109375 L 1.875,-1.15625 C 2.078125,-1.328125 2.609375,-1.703125 2.796875,-1.890625 2.96875,-2.0625 3.21875,-2.375 3.21875,-2.796875 c 0,-0.75 -0.671875,-1.1875 -1.484375,-1.1875 -0.765625,0 -1.296875,0.515625 -1.296875,1.078125 0,0.296875 0.25,0.34375 0.3125,0.34375 0.15625,0 0.328125,-0.109375 0.328125,-0.328125 C 1.078125,-3.015625 1,-3.21875 0.734375,-3.21875 0.875,-3.515625 1.234375,-3.75 1.65625,-3.75 c 0.625,0 0.953125,0.46875 0.953125,0.953125 0,0.421875 -0.28125,0.859375 -0.6875,1.25 L 0.5,-0.25 C 0.4375,-0.1875 0.4375,-0.1875 0.4375,0 h 2.59375 z m 0,0"
               id="path57" />
          </g>
        </g>
      </g>
    </g>
    <g
       inkscape:label=""
       transform="translate(63.289672,26.271186)"
       id="g67">
      <g
         id="g66"
         transform="matrix(0.352778,0,0,0.352778,-0.84089,-0.706085)">
        <g
           style="fill:#000000;fill-opacity:1"
           id="g63">
          <g
             id="g62"
             transform="translate(1.993,7.4390001)">
            <path
               style="stroke:none"
               d="m 6.3125,-4.578125 c 0.09375,-0.390625 0.265625,-0.578125 0.84375,-0.59375 0.078125,0 0.140625,-0.0625 0.140625,-0.15625 0,-0.046875 -0.03125,-0.109375 -0.109375,-0.109375 -0.0625,0 -0.21875,0.015625 -0.796875,0.015625 -0.640625,0 -0.75,-0.015625 -0.828125,-0.015625 -0.125,0 -0.140625,0.078125 -0.140625,0.140625 0,0.109375 0.09375,0.125 0.171875,0.125 0.484375,0.015625 0.484375,0.21875 0.484375,0.328125 0,0.046875 0,0.09375 -0.03125,0.21875 l -0.875,3.484375 L 3.25,-5.296875 C 3.1875,-5.4375 3.171875,-5.4375 2.984375,-5.4375 H 1.9375 c -0.140625,0 -0.234375,0 -0.234375,0.140625 0,0.125 0.09375,0.125 0.25,0.125 0.078125,0 0.3125,0 0.5,0.046875 L 1.375,-0.859375 C 1.28125,-0.453125 1.078125,-0.28125 0.546875,-0.265625 0.5,-0.265625 0.390625,-0.25 0.390625,-0.109375 0.390625,-0.0625 0.4375,0 0.515625,0 0.546875,0 0.734375,-0.03125 1.3125,-0.03125 1.9375,-0.03125 2.0625,0 2.125,0 c 0.03125,0 0.15625,0 0.15625,-0.15625 0,-0.09375 -0.09375,-0.109375 -0.140625,-0.109375 -0.296875,0 -0.53125,-0.046875 -0.53125,-0.328125 0,-0.046875 0.03125,-0.15625 0.03125,-0.15625 l 1.03125,-4.171875 H 2.6875 l 2.21875,4.78125 C 4.953125,-0.015625 4.96875,0 5.046875,0 c 0.109375,0 0.125,-0.03125 0.15625,-0.171875 z m 0,0"
               id="path61" />
          </g>
        </g>
        <g
           style="fill:#000000;fill-opacity:1"
           id="g65">
          <g
             id="g64"
             transform="translate(8.7139997,8.4350004)">
            <path
               style="stroke:none"
               d="m 3.109375,-1.921875 c 0.03125,-0.140625 0.09375,-0.359375 0.09375,-0.40625 0,-0.125 -0.109375,-0.203125 -0.21875,-0.203125 -0.171875,0 -0.265625,0.15625 -0.28125,0.25 -0.09375,-0.140625 -0.296875,-0.359375 -0.65625,-0.359375 -0.765625,0 -1.59375,0.796875 -1.59375,1.6875 0,0.640625 0.453125,1.015625 0.953125,1.015625 0.40625,0 0.75,-0.28125 0.890625,-0.421875 0.125,0.375 0.515625,0.421875 0.65625,0.421875 0.21875,0 0.375,-0.125 0.484375,-0.3125 0.140625,-0.234375 0.234375,-0.578125 0.234375,-0.609375 0,-0.015625 -0.015625,-0.09375 -0.125,-0.09375 -0.078125,0 -0.09375,0.046875 -0.125,0.140625 -0.09375,0.375 -0.21875,0.671875 -0.453125,0.671875 -0.203125,0 -0.21875,-0.21875 -0.21875,-0.296875 0,-0.078125 0.0625,-0.328125 0.109375,-0.484375 z m -0.78125,1.140625 c -0.03125,0.109375 -0.03125,0.109375 -0.109375,0.203125 -0.328125,0.375 -0.640625,0.4375 -0.78125,0.4375 -0.25,0 -0.484375,-0.15625 -0.484375,-0.578125 0,-0.25 0.125,-0.84375 0.328125,-1.171875 C 1.453125,-2.21875 1.765625,-2.4375 2.046875,-2.4375 c 0.453125,0 0.5625,0.46875 0.5625,0.515625 L 2.59375,-1.84375 Z m 0,0"
               id="path63" />
          </g>
        </g>
      </g>
    </g>
    <g
       inkscape:label=""
       transform="translate(88.762998,29.522111)"
       id="g73">
      <g
         id="g72"
         transform="matrix(0.352778,0,0,0.352778,-0.84089,-0.706085)">
        <g
           style="fill:#000000;fill-opacity:1"
           id="g69">
          <g
             id="g68"
             transform="translate(1.993,7.4390001)">
            <path
               style="stroke:none"
               d="m 6.3125,-4.578125 c 0.09375,-0.390625 0.265625,-0.578125 0.84375,-0.59375 0.078125,0 0.140625,-0.0625 0.140625,-0.15625 0,-0.046875 -0.03125,-0.109375 -0.109375,-0.109375 -0.0625,0 -0.21875,0.015625 -0.796875,0.015625 -0.640625,0 -0.75,-0.015625 -0.828125,-0.015625 -0.125,0 -0.140625,0.078125 -0.140625,0.140625 0,0.109375 0.09375,0.125 0.171875,0.125 0.484375,0.015625 0.484375,0.21875 0.484375,0.328125 0,0.046875 0,0.09375 -0.03125,0.21875 l -0.875,3.484375 L 3.25,-5.296875 C 3.1875,-5.4375 3.171875,-5.4375 2.984375,-5.4375 H 1.9375 c -0.140625,0 -0.234375,0 -0.234375,0.140625 0,0.125 0.09375,0.125 0.25,0.125 0.078125,0 0.3125,0 0.5,0.046875 L 1.375,-0.859375 C 1.28125,-0.453125 1.078125,-0.28125 0.546875,-0.265625 0.5,-0.265625 0.390625,-0.25 0.390625,-0.109375 0.390625,-0.0625 0.4375,0 0.515625,0 0.546875,0 0.734375,-0.03125 1.3125,-0.03125 1.9375,-0.03125 2.0625,0 2.125,0 c 0.03125,0 0.15625,0 0.15625,-0.15625 0,-0.09375 -0.09375,-0.109375 -0.140625,-0.109375 -0.296875,0 -0.53125,-0.046875 -0.53125,-0.328125 0,-0.046875 0.03125,-0.15625 0.03125,-0.15625 l 1.03125,-4.171875 H 2.6875 l 2.21875,4.78125 C 4.953125,-0.015625 4.96875,0 5.046875,0 c 0.109375,0 0.125,-0.03125 0.15625,-0.171875 z m 0,0"
               id="path67" />
          </g>
        </g>
        <g
           style="fill:#000000;fill-opacity:1"
           id="g71">
          <g
             id="g70"
             transform="translate(8.7139997,8.8439999)">
            <path
               style="stroke:none"
               d="m 1.6875,-3.96875 c 0,-0.03125 0.015625,-0.0625 0.015625,-0.09375 0,-0.09375 -0.125,-0.09375 -0.1875,-0.078125 L 0.84375,-4.09375 c -0.109375,0 -0.1875,0.015625 -0.1875,0.15625 0,0.09375 0.078125,0.09375 0.171875,0.09375 0.171875,0 0.21875,0.015625 0.296875,0.03125 0,0.109375 0,0.125 -0.03125,0.234375 L 0.8125,-2.46875 c -0.046875,0.171875 -0.28125,1.125 -0.296875,1.203125 -0.03125,0.140625 -0.03125,0.25 -0.03125,0.3125 0,0.671875 0.4375,1.015625 0.9375,1.015625 0.796875,0 1.59375,-0.828125 1.59375,-1.6875 0,-0.609375 -0.421875,-1.015625 -0.96875,-1.015625 -0.359375,0 -0.671875,0.234375 -0.78125,0.328125 z m -0.53125,2.078125 c 0.1875,-0.25 0.53125,-0.546875 0.875,-0.546875 0.3125,0 0.484375,0.234375 0.484375,0.578125 0,0.21875 -0.125,0.859375 -0.34375,1.21875 -0.203125,0.328125 -0.5,0.5 -0.75,0.5 -0.1875,0 -0.5,-0.109375 -0.5,-0.625 0,-0.1875 0.03125,-0.28125 0.09375,-0.59375 C 1.0625,-1.5 1.125,-1.78125 1.15625,-1.890625 Z m 0,0"
               id="path69" />
          </g>
        </g>
      </g>
    </g>
    <g
       id="path112"
       style="opacity:1"
       transform="translate(0,0.52916667)">
      <path
         style="baseline-shift:baseline;display:inline;overflow:visible;vector-effect:none;enable-background:accumulate;stop-color:#000000;stop-opacity:1"
         d="m 117.97266,30.574219 -3.10352,1.791015 -3.10547,1.792969 0.19531,0.335938 3.10352,-1.792969 3.10352,-1.791016 z"
         id="path22" />
      <g
         id="g21">
        <path
           d="m 114.25595,32.06493 2.19138,-0.387065 -1.4309,1.704255 c 0.10781,-0.573752 -0.20874,-1.122032 -0.76048,-1.31719 z"
           style="baseline-shift:baseline;display:inline;overflow:visible;vector-effect:none;fill-rule:evenodd;enable-background:accumulate;stop-color:#000000;stop-opacity:1"
           id="path21" />
      </g>
    </g>
    <g
       id="path108"
       style="opacity:1"
       transform="translate(0,0.52916667)">
      <path
         style="baseline-shift:baseline;display:inline;overflow:visible;vector-effect:none;enable-background:accumulate;stop-color:#000000;stop-opacity:1"
         d="m 83.046875,26.785156 -0.205078,0.205078 2.484375,2.482422 2.484375,2.484375 0.203125,-0.205078 -2.482422,-2.482422 z"
         id="path11" />
      <g
         id="g7">
        <path
           d="m 85.628653,28.770579 0.700933,1.502001 -1.502,-0.700934 c 0.433577,-0.03304 0.767021,-0.366488 0.801067,-0.801067 z"
           style="baseline-shift:baseline;display:inline;overflow:visible;vector-effect:none;fill-rule:evenodd;enable-background:accumulate;stop-color:#000000;stop-opacity:1"
           id="path7" />
      </g>
    </g>
    <path
       style="fill:none;stroke:#000000;stroke-width:0.264583px;stroke-linecap:butt;stroke-linejoin:miter;stroke-dasharray:0.264583, 0.793749;stroke-dashoffset:0;stroke-opacity:1"
       d="m 88.0068,32.46602 2.929819,2.929818"
       id="path109" />
    <path
       style="fill:none;stroke:#000000;stroke-width:0.264583px;stroke-linecap:butt;stroke-linejoin:miter;stroke-dasharray:0.264583, 0.793749;stroke-dashoffset:0;stroke-opacity:1"
       d="m 108.79434,36.62549 3.66044,-2.113358"
       id="path111" />
    <rect
       style="fill:none;fill-rule:evenodd;stroke-width:0.165;stroke-linejoin:round"
       id="rect1"
       width="77.445145"
       height="32.925014"
       x="62.243496"
       y="18.121916"
       ry="0.46005815" />
    <circle
       style="fill:#ff5959;fill-opacity:1;stroke:#c70000;stroke-width:0.24;stroke-dasharray:none;stroke-dashoffset:0;stroke-opacity:1"
       id="path10-3"
       cx="118.03004"
       cy="31.281887"
       r="0.9206956" />
  </g>
</svg>
