<?xml version="1.0" encoding="UTF-8" standalone="no"?>
<!-- Uploaded to: SVG Repo, www.svgrepo.com, Generator: SVG Repo Mixer Tools -->

<svg
   fill="#000000"
   height="815.1181"
   width="815.1181"
   version="1.1"
   id="Capa_1"
   viewBox="0 0 468.69291 468.69291"
   xml:space="preserve"
   xmlns="http://www.w3.org/2000/svg"
   xmlns:svg="http://www.w3.org/2000/svg"><defs
   id="defs3" />
<g
   id="g3"
   transform="translate(4.3464241,4.3464549)"
   style="fill:#575757;fill-opacity:1;stroke:#000000;stroke-width:8.69291;stroke-dasharray:none;stroke-opacity:1">
	<path
   d="M 392.635,67.366 C 349.193,23.924 291.436,0 230,0 168.564,0 110.807,23.924 67.365,67.366 23.924,110.807 0,168.565 0,230 0,291.435 23.924,349.193 67.365,392.634 110.807,436.076 168.564,460 230,460 291.436,460 349.193,436.076 392.635,392.634 436.076,349.193 460,291.435 460,230 460,168.565 436.076,110.807 392.635,67.366 Z M 230,440 C 114.206,440 20,345.794 20,230 20,114.206 114.206,20 230,20 c 115.794,0 210,94.206 210,210 0,115.794 -94.206,210 -210,210 z"
   id="path1"
   style="fill:#575757;fill-opacity:1;stroke:#000000;stroke-width:8.69291;stroke-dasharray:none;stroke-opacity:1" />
	<path
   d="M 268.155,78.981 C 265.572,60.229 249.451,45.737 230,45.737 c -19.45,0 -35.57,14.491 -38.155,33.243 -31.956,8.069 -60.875,26.337 -82.015,51.953 -22.935,27.791 -35.566,62.974 -35.566,99.067 0,85.874 69.863,155.737 155.736,155.737 85.873,0 155.736,-69.863 155.736,-155.737 0,-71.489 -48.986,-133.751 -117.581,-151.019 z M 230,65.737 c 10.216,0 18.526,8.311 18.526,18.526 0,0.615 -0.033,1.223 -0.092,1.823 -0.003,0.026 -0.003,0.052 -0.005,0.079 -0.955,9.325 -8.855,16.624 -18.429,16.624 -10.216,0 -18.526,-8.311 -18.526,-18.526 0,-10.215 8.31,-18.526 18.526,-18.526 z m 0,300 C 155.154,365.737 94.264,304.846 94.264,230 c 0,-61.362 41.633,-115.159 100.138,-131.019 5.794,13.961 19.566,23.808 35.598,23.808 16.033,0 29.805,-9.848 35.599,-23.81 58.554,15.854 100.137,69.521 100.137,131.021 0,74.846 -60.89,135.737 -135.736,135.737 z"
   id="path2"
   style="fill:#575757;fill-opacity:1;stroke:#000000;stroke-width:8.69291;stroke-dasharray:none;stroke-opacity:1" />
	<path
   d="m 230,155 c -41.355,0 -75,33.645 -75,75 0,41.355 33.645,75 75,75 41.355,0 75,-33.645 75,-75 0,-41.355 -33.645,-75 -75,-75 z m 0,130 c -30.327,0 -55,-24.673 -55,-55 0,-30.327 24.673,-55 55,-55 30.327,0 55,24.673 55,55 0,30.327 -24.673,55 -55,55 z"
   id="path3"
   style="fill:#575757;fill-opacity:1;stroke:#000000;stroke-width:8.69291;stroke-dasharray:none;stroke-opacity:1" />
</g>
</svg>
