<?xml version="1.0" encoding="UTF-8" standalone="no"?>
<!-- Created with Inkscape (http://www.inkscape.org/) -->

<svg
   width="99.007019mm"
   height="18.525227mm"
   viewBox="0 0 99.007018 18.525226"
   version="1.1"
   id="svg1"
   inkscape:version="1.4.2 (1:1.4.2+202505120738+ebf0e940d0)"
   sodipodi:docname="logo_qed_eye.svg"
   xmlns:inkscape="http://www.inkscape.org/namespaces/inkscape"
   xmlns:sodipodi="http://sodipodi.sourceforge.net/DTD/sodipodi-0.dtd"
   xmlns="http://www.w3.org/2000/svg"
   xmlns:svg="http://www.w3.org/2000/svg">
  <sodipodi:namedview
     id="namedview1"
     pagecolor="#ffffff"
     bordercolor="#666666"
     borderopacity="1.0"
     inkscape:showpageshadow="2"
     inkscape:pageopacity="0.0"
     inkscape:pagecheckerboard="0"
     inkscape:deskcolor="#d1d1d1"
     inkscape:document-units="mm"
     showguides="true"
     inkscape:zoom="2.5572302"
     inkscape:cx="241.86324"
     inkscape:cy="113.40395"
     inkscape:window-width="1920"
     inkscape:window-height="1011"
     inkscape:window-x="0"
     inkscape:window-y="32"
     inkscape:window-maximized="1"
     inkscape:current-layer="layer1">
    <sodipodi:guide
       position="49.462964,23.109079"
       orientation="1,0"
       id="guide2"
       inkscape:locked="false" />
    <sodipodi:guide
       position="53.087405,9.3575214"
       orientation="0,-1"
       id="guide3"
       inkscape:locked="false" />
  </sodipodi:namedview>
  <defs
     id="defs1" />
  <g
     inkscape:label="Layer 1"
     inkscape:groupmode="layer"
     id="layer1"
     transform="translate(-40.468658,-14.868461)">
    <path
       style="fill:none;stroke:#757575;stroke-width:0.576;stroke-linecap:butt;stroke-linejoin:miter;stroke-dasharray:none;stroke-opacity:1"
       d="m 82.406395,23.292602 c -0.291724,0.395913 -0.685854,-0.18468 -0.977578,0.211235 -0.291722,0.395913 0.524264,0.755209 0.232574,1.151107 -0.291723,0.395915 -0.83055,-0.339526 -1.122274,0.05639 -0.291723,0.395915 0.524263,0.755208 0.232574,1.151106 -0.291724,0.395915 -0.830552,-0.339526 -1.122276,0.05639 -0.291722,0.395914 0.524265,0.755207 0.232573,1.151105 -0.291723,0.395916 -0.830552,-0.339524 -1.122275,0.05639 -0.291724,0.395914 0.524262,0.755207 0.232573,1.151107 -0.291722,0.395912 -0.830551,-0.339529 -1.122274,0.05639 -0.291725,0.395913 0.524263,0.755205 0.232573,1.151107 -0.291724,0.395912 -0.830553,-0.339528 -1.122274,0.05638 -0.291724,0.395914 0.524262,0.755208 0.232574,1.151107 -0.291725,0.395914 -0.830552,-0.339525 -1.122276,0.05639 -0.291724,0.395914 0.468689,0.66602 0.176958,1.061937"
       id="path6-4"
       sodipodi:nodetypes="czzzzzzzzzzzzzc" />
    <path
       style="fill:none;stroke:#757575;stroke-width:0.576;stroke-linecap:butt;stroke-linejoin:miter;stroke-dasharray:none;stroke-opacity:1"
       d="m 97.256131,23.329304 c 0.291724,0.395913 0.685854,-0.18468 0.977578,0.211235 0.291722,0.395913 -0.524264,0.755209 -0.232574,1.151107 0.291723,0.395915 0.83055,-0.339526 1.122274,0.05639 0.291723,0.395915 -0.524263,0.755208 -0.232574,1.151106 0.291724,0.395915 0.830552,-0.339526 1.122275,0.05639 0.29172,0.395914 -0.524264,0.755207 -0.232572,1.151105 0.291722,0.395916 0.830552,-0.339524 1.122272,0.05639 0.29173,0.395914 -0.52426,0.755207 -0.23257,1.151107 0.29172,0.395912 0.83055,-0.339529 1.12227,0.05639 0.29173,0.395913 -0.52426,0.755205 -0.23257,1.151107 0.29172,0.395912 0.83055,-0.339528 1.12227,0.05638 0.29173,0.395914 -0.52426,0.755208 -0.23257,1.151107 0.29172,0.395914 0.83055,-0.339525 1.12228,0.05639 0.29172,0.395914 -0.46869,0.66602 -0.17696,1.061937"
       id="path6-4-9"
       sodipodi:nodetypes="czzzzzzzzzzzzzc" />
    <path
       style="fill:none;stroke:#757575;stroke-width:0.576;stroke-linecap:butt;stroke-linejoin:miter;stroke-dasharray:none;stroke-opacity:1"
       d="m 91.602354,25.694619 c 0.364589,0.330038 0.63547,-0.317303 1.000059,0.01274 0.364586,0.330038 -0.363717,0.844336 8.35e-4,1.174366 0.364588,0.330041 0.746505,-0.497816 1.111094,-0.167775 0.364588,0.330041 -0.363715,0.844336 8.36e-4,1.174366 0.364589,0.330041 0.746507,-0.497816 1.111096,-0.167775 0.364587,0.33004 -0.363718,0.844334 8.36e-4,1.174364"
       id="path6-4-9-2-9"
       sodipodi:nodetypes="czzzzzc" />
    <path
       style="fill:none;stroke:#757575;stroke-width:0.576;stroke-linecap:butt;stroke-linejoin:miter;stroke-dasharray:none;stroke-opacity:1"
       d="m 84.542155,18.061631 c 0.364589,0.330038 0.63547,-0.317303 1.000059,0.01274 0.364586,0.330038 -0.363717,0.844336 8.35e-4,1.174366 0.364588,0.330041 0.746505,-0.497816 1.111094,-0.167775 0.364588,0.330041 -0.363715,0.844336 8.36e-4,1.174366 0.364589,0.330041 0.746507,-0.497816 1.111096,-0.167775 0.364587,0.33004 -0.363718,0.844334 8.36e-4,1.174364"
       id="path6-4-9-2"
       sodipodi:nodetypes="czzzzzc" />
    <path
       style="fill:none;stroke:#757575;stroke-width:0.576;stroke-linecap:butt;stroke-linejoin:miter;stroke-dasharray:none;stroke-opacity:1"
       d="m 91.779842,21.710893 c -0.364589,0.330038 -0.788732,-0.210958 -1.153321,0.119085 -0.364586,0.330038 0.363717,0.844336 -8.35e-4,1.174366 -0.364588,0.330041 -0.746505,-0.497816 -1.111094,-0.167775 -0.364588,0.330041 0.363715,0.844336 -8.36e-4,1.174366 -0.364589,0.330041 -0.746507,-0.497816 -1.111096,-0.167775 -0.364587,0.33004 0.0697,0.941296 -0.294849,1.271326"
       id="path6-4-9-2-7"
       sodipodi:nodetypes="czzzzzc" />
    <path
       style="fill:none;stroke:#000000;stroke-width:1.065;stroke-linecap:butt;stroke-linejoin:miter;stroke-dasharray:none;stroke-opacity:1"
       d="M 42.673399,32.202228 H 137.34911"
       id="path1"
       sodipodi:nodetypes="cc" />
    <circle
       style="fill:none;fill-rule:evenodd;stroke:#000000;stroke-width:0.776;stroke-linecap:round;stroke-linejoin:round;stroke-dasharray:none"
       id="path2"
       cx="89.880196"
       cy="23.29261"
       r="7.473804" />
    <circle
       style="fill:none;fill-rule:evenodd;stroke:#000000;stroke-width:0.677;stroke-linecap:round;stroke-linejoin:round;stroke-dasharray:none"
       id="path2-9"
       cx="89.880196"
       cy="23.330231"
       r="2.6852901" />
    <rect
       style="fill:none;fill-rule:evenodd;stroke:none;stroke-width:0.702722;stroke-linecap:round;stroke-linejoin:round;stroke-dasharray:none;stroke-opacity:1"
       id="rect3"
       width="99.007019"
       height="18.525227"
       x="40.468658"
       y="14.868461" />
  </g>
</svg>
